<svg width="142" height="64" viewBox="0 0 142 64" fill="none" xmlns="http://www.w3.org/2000/svg">
<path d="M4.15869 1.83624L32.1071 10.6972L23.0145 22.3751L33.4152 33.7041L26.8876 61.8997L2.01874 49.341L23.0145 22.3751L4.15869 1.83624Z" fill="#00BAFE" fill-opacity="0.2"/>
<path d="M4.15869 1.83624L32.1071 10.6972L2.01874 49.341L26.8876 61.8997L33.4152 33.7041L4.15869 1.83624Z" stroke="#5DC1EF" stroke-width="0.709248" stroke-linejoin="round"/>
<circle cx="26.8115" cy="61.7771" r="2.12923" transform="rotate(92.5793 26.8115 61.7771)" fill="#5D5FEF"/>
<circle cx="33.0142" cy="34.4905" r="2.12923" transform="rotate(92.5793 33.0142 34.4905)" fill="#5D5FEF"/>
<circle cx="31.691" cy="10.4655" r="4.27528" transform="rotate(92.5793 31.691 10.4655)" fill="#5DC1EF"/>
<circle cx="4.34375" cy="2.22291" r="2.12923" transform="rotate(92.5793 4.34375 2.22291)" fill="#5D5FEF"/>
<circle cx="2.2229" cy="49.3019" r="2.12923" transform="rotate(92.5793 2.2229 49.3019)" fill="#5D5FEF"/>
<path d="M65.5757 33.5323H56.1599V39.9076H67.2104V43.8472H51.2559V20.0461H67.1777V24.0184H56.1599V29.6908H65.5757V33.5323Z" fill="#5D5FEF"/>
<path d="M88.3306 24.0184H81.0399V43.8472H76.1359V24.0184H68.9432V20.0461H88.3306V24.0184Z" fill="#5D5FEF"/>
<path d="M96.357 43.8472H91.4529V20.0461H96.357V43.8472Z" fill="#5D5FEF"/>
<path d="M109.712 37.9459L115.107 20.0461H120.567L112.279 43.8472H107.162L98.9071 20.0461H104.351L109.712 37.9459Z" fill="#5D5FEF"/>
<path d="M135.017 38.9431H126.419L124.784 43.8472H119.57L128.43 20.0461H132.974L137.429 31.9466L141.883 43.8472H136.668L135.017 38.9431ZM127.743 34.9708H133.693L130.702 26.0617L127.743 34.9708Z" fill="#5D5FEF"/>
</svg>
